<svg xmlns="http://www.w3.org/2000/svg" xmlns:xlink="http://www.w3.org/1999/xlink" width="500" zoomAndPan="magnify" viewBox="0 0 375 225" height="300" preserveAspectRatio="xMidYMid meet" version="1.0"><defs><g/><clipPath id="bea00c6760"><path d="M 119.183594 6.671875 L 255.683594 6.671875 L 255.683594 143.171875 L 119.183594 143.171875 Z M 119.183594 6.671875 " clip-rule="nonzero"/></clipPath><clipPath id="d47ba57d18"><rect x="0" width="276" y="0" height="94"/></clipPath></defs><path fill="#ddeaff" d="M 137.90625 74.988281 C 137.910156 71.957031 138.128906 68.945312 138.5625 65.949219 C 138.996094 62.949219 139.640625 59.996094 140.492188 57.09375 C 141.347656 54.1875 142.402344 51.355469 143.660156 48.597656 C 144.917969 45.84375 146.363281 43.191406 148 40.640625 C 149.632812 38.09375 151.441406 35.671875 153.421875 33.378906 C 155.402344 31.089844 157.535156 28.949219 159.820312 26.960938 C 162.105469 24.972656 164.519531 23.15625 167.0625 21.511719 C 169.605469 19.871094 172.253906 18.414062 175.007812 17.148438 C 173.371094 17.503906 171.75 17.925781 170.148438 18.417969 C 168.550781 18.914062 166.972656 19.472656 165.417969 20.097656 C 163.867188 20.726562 162.34375 21.417969 160.847656 22.171875 C 159.351562 22.929688 157.894531 23.746094 156.46875 24.625 C 155.042969 25.503906 153.65625 26.445312 152.3125 27.441406 C 150.96875 28.4375 149.667969 29.492188 148.410156 30.597656 C 147.152344 31.707031 145.945312 32.867188 144.789062 34.074219 C 143.632812 35.285156 142.527344 36.542969 141.476562 37.847656 C 140.425781 39.148438 139.429688 40.496094 138.492188 41.882812 C 137.558594 43.273438 136.679688 44.699219 135.863281 46.160156 C 135.046875 47.625 134.296875 49.117188 133.605469 50.644531 C 132.917969 52.171875 132.292969 53.722656 131.738281 55.304688 C 131.179688 56.882812 130.691406 58.484375 130.269531 60.101562 C 129.847656 61.722656 129.496094 63.359375 129.210938 65.011719 C 128.929688 66.660156 128.71875 68.320312 128.574219 69.988281 C 128.433594 71.660156 128.363281 73.332031 128.363281 75.003906 C 128.363281 76.679688 128.433594 78.351562 128.574219 80.019531 C 128.71875 81.691406 128.929688 83.347656 129.210938 85 C 129.496094 86.652344 129.847656 88.285156 130.269531 89.90625 C 130.691406 91.527344 131.179688 93.128906 131.738281 94.707031 C 132.292969 96.289062 132.917969 97.839844 133.605469 99.367188 C 134.296875 100.894531 135.046875 102.386719 135.863281 103.851562 C 136.679688 105.3125 137.558594 106.738281 138.492188 108.125 C 139.429688 109.515625 140.425781 110.859375 141.476562 112.164062 C 142.527344 113.46875 143.632812 114.726562 144.789062 115.933594 C 145.945312 117.144531 147.152344 118.304688 148.410156 119.410156 C 149.667969 120.519531 150.96875 121.570312 152.3125 122.570312 C 153.65625 123.566406 155.042969 124.503906 156.46875 125.386719 C 157.894531 126.265625 159.351562 127.082031 160.847656 127.839844 C 162.34375 128.59375 163.867188 129.285156 165.417969 129.914062 C 166.972656 130.539062 168.550781 131.097656 170.148438 131.589844 C 171.75 132.082031 173.371094 132.507812 175.007812 132.863281 C 172.253906 131.597656 169.605469 130.140625 167.058594 128.496094 C 164.515625 126.851562 162.097656 125.035156 159.8125 123.042969 C 157.527344 121.054688 155.394531 118.914062 153.414062 116.621094 C 151.433594 114.328125 149.625 111.90625 147.988281 109.351562 C 146.351562 106.800781 144.90625 104.148438 143.648438 101.390625 C 142.394531 98.632812 141.339844 95.800781 140.484375 92.894531 C 139.632812 89.984375 138.988281 87.03125 138.558594 84.03125 C 138.125 81.03125 137.910156 78.015625 137.90625 74.988281 Z M 137.90625 74.988281 " fill-opacity="1" fill-rule="nonzero"/><g clip-path="url(#bea00c6760)"><path fill="#0466c8" d="M 187.5 6.671875 C 186.378906 6.671875 185.261719 6.699219 184.148438 6.753906 C 183.03125 6.808594 181.914062 6.890625 180.804688 7 C 179.691406 7.109375 178.582031 7.25 177.476562 7.414062 C 176.367188 7.578125 175.269531 7.765625 174.171875 7.984375 C 173.074219 8.203125 171.984375 8.449219 170.898438 8.71875 C 169.816406 8.992188 168.738281 9.289062 167.667969 9.613281 C 166.597656 9.9375 165.535156 10.289062 164.484375 10.667969 C 163.429688 11.042969 162.390625 11.445312 161.355469 11.871094 C 160.324219 12.300781 159.300781 12.753906 158.289062 13.230469 C 157.28125 13.710938 156.28125 14.210938 155.296875 14.738281 C 154.308594 15.265625 153.335938 15.816406 152.378906 16.390625 C 151.417969 16.964844 150.476562 17.566406 149.546875 18.1875 C 148.617188 18.808594 147.703125 19.449219 146.804688 20.117188 C 145.90625 20.78125 145.023438 21.46875 144.160156 22.179688 C 143.296875 22.886719 142.449219 23.617188 141.621094 24.371094 C 140.792969 25.121094 139.984375 25.890625 139.191406 26.679688 C 138.402344 27.472656 137.632812 28.28125 136.882812 29.109375 C 136.128906 29.9375 135.398438 30.785156 134.691406 31.648438 C 133.980469 32.511719 133.292969 33.394531 132.628906 34.292969 C 131.960938 35.191406 131.320312 36.105469 130.699219 37.035156 C 130.078125 37.964844 129.476562 38.90625 128.902344 39.867188 C 128.328125 40.824219 127.777344 41.796875 127.25 42.785156 C 126.722656 43.769531 126.222656 44.769531 125.742188 45.777344 C 125.265625 46.789062 124.8125 47.8125 124.382812 48.84375 C 123.957031 49.878906 123.554688 50.921875 123.175781 51.972656 C 122.800781 53.023438 122.449219 54.085938 122.125 55.15625 C 121.800781 56.226562 121.503906 57.304688 121.230469 58.386719 C 120.960938 59.472656 120.714844 60.5625 120.496094 61.660156 C 120.277344 62.757812 120.085938 63.859375 119.921875 64.964844 C 119.757812 66.070312 119.621094 67.179688 119.511719 68.292969 C 119.402344 69.402344 119.320312 70.519531 119.265625 71.636719 C 119.210938 72.75 119.183594 73.871094 119.183594 74.988281 C 119.183594 76.105469 119.210938 77.222656 119.265625 78.339844 C 119.320312 79.457031 119.402344 80.570312 119.511719 81.683594 C 119.621094 82.796875 119.757812 83.90625 119.921875 85.011719 C 120.085938 86.117188 120.277344 87.21875 120.496094 88.316406 C 120.714844 89.410156 120.960938 90.5 121.230469 91.585938 C 121.503906 92.671875 121.800781 93.746094 122.125 94.816406 C 122.449219 95.886719 122.800781 96.949219 123.175781 98 C 123.554688 99.054688 123.957031 100.097656 124.382812 101.128906 C 124.8125 102.164062 125.265625 103.183594 125.742188 104.195312 C 126.222656 105.207031 126.722656 106.203125 127.25 107.191406 C 127.777344 108.175781 128.328125 109.148438 128.902344 110.109375 C 129.476562 111.066406 130.078125 112.011719 130.699219 112.941406 C 131.320312 113.871094 131.960938 114.785156 132.628906 115.683594 C 133.292969 116.578125 133.980469 117.460938 134.691406 118.324219 C 135.398438 119.191406 136.128906 120.035156 136.882812 120.863281 C 137.632812 121.691406 138.402344 122.503906 139.191406 123.292969 C 139.984375 124.082031 140.792969 124.855469 141.621094 125.605469 C 142.449219 126.355469 143.296875 127.085938 144.160156 127.796875 C 145.023438 128.503906 145.90625 129.191406 146.804688 129.859375 C 147.703125 130.523438 148.617188 131.167969 149.546875 131.789062 C 150.476562 132.410156 151.417969 133.007812 152.378906 133.582031 C 153.335938 134.15625 154.308594 134.707031 155.296875 135.234375 C 156.28125 135.761719 157.28125 136.265625 158.289062 136.742188 C 159.300781 137.222656 160.324219 137.671875 161.355469 138.101562 C 162.390625 138.53125 163.429688 138.929688 164.484375 139.308594 C 165.535156 139.683594 166.597656 140.035156 167.667969 140.359375 C 168.738281 140.683594 169.816406 140.984375 170.898438 141.253906 C 171.984375 141.527344 173.074219 141.769531 174.171875 141.988281 C 175.269531 142.207031 176.367188 142.398438 177.476562 142.5625 C 178.582031 142.726562 179.691406 142.863281 180.804688 142.972656 C 181.914062 143.082031 183.03125 143.164062 184.148438 143.21875 C 185.261719 143.273438 186.378906 143.300781 187.5 143.300781 C 188.617188 143.300781 189.734375 143.273438 190.851562 143.21875 C 191.96875 143.164062 193.082031 143.082031 194.195312 142.972656 C 195.308594 142.863281 196.417969 142.726562 197.523438 142.5625 C 198.628906 142.398438 199.730469 142.207031 200.828125 141.988281 C 201.921875 141.769531 203.011719 141.527344 204.097656 141.253906 C 205.183594 140.984375 206.257812 140.683594 207.328125 140.359375 C 208.398438 140.035156 209.460938 139.683594 210.511719 139.308594 C 211.566406 138.929688 212.609375 138.53125 213.640625 138.101562 C 214.675781 137.671875 215.695312 137.21875 216.707031 136.742188 C 217.71875 136.265625 218.714844 135.761719 219.703125 135.234375 C 220.6875 134.707031 221.660156 134.15625 222.621094 133.582031 C 223.578125 133.007812 224.523438 132.410156 225.453125 131.789062 C 226.382812 131.167969 227.296875 130.523438 228.195312 129.859375 C 229.089844 129.191406 229.972656 128.503906 230.835938 127.796875 C 231.703125 127.085938 232.546875 126.355469 233.375 125.605469 C 234.203125 124.855469 235.015625 124.082031 235.804688 123.292969 C 236.59375 122.503906 237.367188 121.691406 238.117188 120.863281 C 238.867188 120.035156 239.597656 119.191406 240.304688 118.324219 C 241.015625 117.460938 241.703125 116.578125 242.371094 115.683594 C 243.035156 114.785156 243.679688 113.871094 244.300781 112.941406 C 244.921875 112.011719 245.519531 111.066406 246.09375 110.109375 C 246.667969 109.148438 247.21875 108.175781 247.746094 107.191406 C 248.273438 106.203125 248.777344 105.207031 249.253906 104.195312 C 249.730469 103.183594 250.183594 102.164062 250.613281 101.128906 C 251.039062 100.097656 251.441406 99.054688 251.820312 98 C 252.195312 96.949219 252.546875 95.886719 252.871094 94.816406 C 253.195312 93.746094 253.496094 92.671875 253.765625 91.585938 C 254.039062 90.5 254.28125 89.410156 254.5 88.316406 C 254.71875 87.21875 254.910156 86.117188 255.074219 85.011719 C 255.238281 83.90625 255.375 82.796875 255.484375 81.683594 C 255.59375 80.570312 255.675781 79.457031 255.730469 78.339844 C 255.785156 77.222656 255.8125 76.105469 255.8125 74.988281 C 255.8125 73.871094 255.785156 72.753906 255.730469 71.636719 C 255.675781 70.519531 255.589844 69.40625 255.480469 68.292969 C 255.371094 67.179688 255.234375 66.070312 255.070312 64.964844 C 254.90625 63.859375 254.714844 62.757812 254.496094 61.660156 C 254.277344 60.566406 254.03125 59.476562 253.757812 58.390625 C 253.488281 57.308594 253.1875 56.230469 252.863281 55.160156 C 252.539062 54.089844 252.1875 53.03125 251.8125 51.976562 C 251.433594 50.925781 251.03125 49.882812 250.605469 48.847656 C 250.175781 47.816406 249.722656 46.796875 249.246094 45.785156 C 248.765625 44.773438 248.265625 43.777344 247.738281 42.789062 C 247.210938 41.804688 246.660156 40.832031 246.085938 39.875 C 245.507812 38.914062 244.910156 37.96875 244.289062 37.042969 C 243.667969 36.113281 243.027344 35.199219 242.359375 34.300781 C 241.695312 33.402344 241.007812 32.523438 240.296875 31.65625 C 239.585938 30.792969 238.859375 29.945312 238.105469 29.117188 C 237.355469 28.289062 236.585938 27.480469 235.796875 26.691406 C 235.003906 25.902344 234.195312 25.128906 233.367188 24.378906 C 232.539062 23.628906 231.691406 22.898438 230.828125 22.1875 C 229.964844 21.480469 229.082031 20.792969 228.183594 20.125 C 227.289062 19.460938 226.375 18.816406 225.445312 18.195312 C 224.515625 17.574219 223.570312 16.976562 222.613281 16.402344 C 221.652344 15.828125 220.679688 15.277344 219.695312 14.75 C 218.710938 14.222656 217.710938 13.71875 216.703125 13.242188 C 215.691406 12.761719 214.667969 12.308594 213.636719 11.882812 C 212.605469 11.453125 211.5625 11.050781 210.507812 10.675781 C 209.457031 10.296875 208.394531 9.945312 207.324219 9.621094 C 206.257812 9.296875 205.179688 9 204.09375 8.726562 C 203.011719 8.453125 201.921875 8.210938 200.824219 7.992188 C 199.726562 7.773438 198.625 7.582031 197.519531 7.417969 C 196.414062 7.25 195.304688 7.113281 194.195312 7.003906 C 193.082031 6.894531 191.96875 6.8125 190.851562 6.757812 C 189.734375 6.703125 188.617188 6.671875 187.5 6.671875 Z M 187.5 134.191406 C 185.558594 134.191406 183.625 134.097656 181.695312 133.90625 C 179.765625 133.71875 177.851562 133.433594 175.949219 133.054688 C 174.046875 132.675781 172.167969 132.207031 170.3125 131.644531 C 168.457031 131.082031 166.632812 130.429688 164.839844 129.6875 C 163.050781 128.945312 161.300781 128.117188 159.589844 127.203125 C 157.878906 126.289062 156.21875 125.292969 154.605469 124.214844 C 152.992188 123.136719 151.4375 121.984375 149.9375 120.753906 C 148.441406 119.523438 147.003906 118.222656 145.632812 116.851562 C 144.261719 115.480469 142.960938 114.046875 141.730469 112.546875 C 140.5 111.046875 139.347656 109.492188 138.269531 107.878906 C 137.195312 106.269531 136.199219 104.605469 135.285156 102.898438 C 134.371094 101.1875 133.542969 99.4375 132.800781 97.644531 C 132.058594 95.851562 131.40625 94.027344 130.84375 92.171875 C 130.28125 90.316406 129.808594 88.441406 129.429688 86.539062 C 129.050781 84.636719 128.769531 82.71875 128.578125 80.789062 C 128.386719 78.859375 128.292969 76.925781 128.292969 74.988281 C 128.292969 73.046875 128.386719 71.113281 128.578125 69.183594 C 128.769531 67.253906 129.050781 65.339844 129.429688 63.4375 C 129.808594 61.535156 130.28125 59.65625 130.84375 57.800781 C 131.40625 55.945312 132.058594 54.121094 132.800781 52.328125 C 133.542969 50.539062 134.371094 48.789062 135.285156 47.078125 C 136.199219 45.367188 137.195312 43.707031 138.269531 42.09375 C 139.347656 40.480469 140.5 38.925781 141.730469 37.425781 C 142.960938 35.929688 144.261719 34.492188 145.632812 33.121094 C 147.003906 31.75 148.441406 30.449219 149.9375 29.21875 C 151.4375 27.992188 152.992188 26.835938 154.605469 25.757812 C 156.21875 24.683594 157.878906 23.6875 159.589844 22.773438 C 161.300781 21.859375 163.050781 21.03125 164.839844 20.289062 C 166.632812 19.546875 168.457031 18.894531 170.3125 18.332031 C 172.167969 17.769531 174.046875 17.296875 175.949219 16.917969 C 177.851562 16.539062 179.765625 16.257812 181.695312 16.066406 C 183.625 15.875 185.558594 15.78125 187.5 15.78125 C 189.4375 15.78125 191.371094 15.875 193.300781 16.066406 C 195.230469 16.257812 197.148438 16.539062 199.050781 16.917969 C 200.949219 17.296875 202.828125 17.769531 204.683594 18.332031 C 206.539062 18.894531 208.363281 19.546875 210.15625 20.289062 C 211.949219 21.03125 213.699219 21.859375 215.40625 22.773438 C 217.117188 23.6875 218.78125 24.683594 220.390625 25.757812 C 222.003906 26.835938 223.558594 27.992188 225.058594 29.21875 C 226.558594 30.449219 227.992188 31.75 229.363281 33.121094 C 230.734375 34.492188 232.035156 35.929688 233.265625 37.425781 C 234.496094 38.925781 235.648438 40.480469 236.726562 42.09375 C 237.804688 43.707031 238.800781 45.367188 239.714844 47.078125 C 240.628906 48.789062 241.457031 50.539062 242.199219 52.328125 C 242.941406 54.121094 243.59375 55.945312 244.15625 57.800781 C 244.71875 59.65625 245.1875 61.535156 245.566406 63.4375 C 245.945312 65.339844 246.230469 67.253906 246.417969 69.183594 C 246.609375 71.113281 246.703125 73.046875 246.703125 74.988281 C 246.703125 76.925781 246.605469 78.859375 246.414062 80.789062 C 246.222656 82.71875 245.9375 84.632812 245.558594 86.535156 C 245.179688 88.433594 244.707031 90.3125 244.144531 92.167969 C 243.582031 94.023438 242.925781 95.847656 242.183594 97.636719 C 241.441406 99.425781 240.613281 101.175781 239.699219 102.886719 C 238.785156 104.597656 237.789062 106.257812 236.710938 107.867188 C 235.632812 109.480469 234.480469 111.035156 233.25 112.535156 C 232.019531 114.03125 230.71875 115.464844 229.347656 116.835938 C 227.976562 118.207031 226.542969 119.507812 225.046875 120.738281 C 223.546875 121.96875 221.992188 123.121094 220.378906 124.199219 C 218.769531 125.277344 217.109375 126.273438 215.398438 127.1875 C 213.6875 128.101562 211.9375 128.929688 210.148438 129.671875 C 208.355469 130.414062 206.535156 131.070312 204.679688 131.632812 C 202.824219 132.195312 200.945312 132.667969 199.046875 133.046875 C 197.144531 133.425781 195.230469 133.710938 193.300781 133.902344 C 191.371094 134.09375 189.4375 134.191406 187.5 134.191406 Z M 187.5 134.191406 " fill-opacity="1" fill-rule="nonzero"/></g><path fill="#0466c8" d="M 190.277344 54.949219 L 196.714844 61.386719 L 203.226562 54.878906 L 203.226562 99.179688 C 203.171875 99.710938 203 100.203125 202.710938 100.652344 C 202.421875 101.101562 202.046875 101.460938 201.585938 101.730469 C 200.734375 102.28125 199.824219 102.699219 198.851562 102.984375 C 197.882812 103.269531 196.890625 103.414062 195.875 103.414062 C 194.863281 103.414062 193.871094 103.269531 192.898438 102.984375 C 191.929688 102.699219 191.019531 102.28125 190.167969 101.730469 C 189.707031 101.460938 189.332031 101.101562 189.042969 100.652344 C 188.753906 100.203125 188.582031 99.710938 188.527344 99.179688 L 188.527344 55.234375 C 188.527344 48.289062 181.476562 41.890625 172.074219 41.890625 C 162.667969 41.890625 155.617188 48.289062 155.617188 55.234375 L 155.617188 107.964844 L 164.726562 107.964844 L 164.726562 55.234375 C 164.78125 54.703125 164.953125 54.214844 165.242188 53.765625 C 165.53125 53.316406 165.90625 52.957031 166.367188 52.683594 C 167.21875 52.136719 168.128906 51.714844 169.097656 51.429688 C 170.070312 51.144531 171.0625 51 172.074219 51 C 173.089844 51 174.082031 51.144531 175.050781 51.429688 C 176.023438 51.714844 176.933594 52.136719 177.785156 52.683594 C 178.246094 52.957031 178.617188 53.316406 178.90625 53.765625 C 179.195312 54.214844 179.367188 54.703125 179.417969 55.234375 L 179.417969 99.179688 C 179.417969 106.125 186.46875 112.523438 195.878906 112.523438 C 205.289062 112.523438 212.332031 106.148438 212.332031 99.179688 L 212.332031 54.875 L 218.835938 61.382812 L 225.300781 54.949219 L 207.777344 37.441406 Z M 190.277344 54.949219 " fill-opacity="1" fill-rule="nonzero"/><g transform="matrix(1, 0, 0, 1, 50, 131)"><g clip-path="url(#d47ba57d18)"><g fill="#0466c8" fill-opacity="1"><g transform="translate(1.206898, 70.548544)"><g><path d="M 35.015625 -31.84375 C 34.179688 -33.382812 32.976562 -34.5625 31.40625 -35.375 C 29.832031 -36.195312 27.988281 -36.609375 25.875 -36.609375 C 22.195312 -36.609375 19.253906 -35.40625 17.046875 -33 C 14.835938 -30.59375 13.734375 -27.375 13.734375 -23.34375 C 13.734375 -19.050781 14.890625 -15.703125 17.203125 -13.296875 C 19.523438 -10.890625 22.722656 -9.6875 26.796875 -9.6875 C 29.578125 -9.6875 31.929688 -10.390625 33.859375 -11.796875 C 35.785156 -13.210938 37.191406 -15.25 38.078125 -17.90625 L 23.671875 -17.90625 L 23.671875 -26.265625 L 48.359375 -26.265625 L 48.359375 -15.71875 C 47.515625 -12.882812 46.085938 -10.25 44.078125 -7.8125 C 42.066406 -5.382812 39.507812 -3.421875 36.40625 -1.921875 C 33.3125 -0.421875 29.820312 0.328125 25.9375 0.328125 C 21.332031 0.328125 17.226562 -0.675781 13.625 -2.6875 C 10.019531 -4.695312 7.210938 -7.492188 5.203125 -11.078125 C 3.191406 -14.660156 2.1875 -18.75 2.1875 -23.34375 C 2.1875 -27.945312 3.191406 -32.050781 5.203125 -35.65625 C 7.210938 -39.257812 10.007812 -42.066406 13.59375 -44.078125 C 17.175781 -46.085938 21.269531 -47.09375 25.875 -47.09375 C 31.4375 -47.09375 36.128906 -45.742188 39.953125 -43.046875 C 43.785156 -40.347656 46.320312 -36.613281 47.5625 -31.84375 Z M 35.015625 -31.84375 "/></g></g></g><g fill="#0466c8" fill-opacity="1"><g transform="translate(46.898124, 70.548544)"><g><path d="M 15.453125 -30.84375 C 16.773438 -32.875 18.429688 -34.472656 20.421875 -35.640625 C 22.410156 -36.816406 24.625 -37.40625 27.0625 -37.40625 L 27.0625 -25.40625 L 23.9375 -25.40625 C 21.113281 -25.40625 18.992188 -24.796875 17.578125 -23.578125 C 16.160156 -22.359375 15.453125 -20.222656 15.453125 -17.171875 L 15.453125 0 L 4.109375 0 L 4.109375 -37.015625 L 15.453125 -37.015625 Z M 15.453125 -30.84375 "/></g></g></g><g fill="#0466c8" fill-opacity="1"><g transform="translate(70.439612, 70.548544)"><g><path d="M 1.859375 -18.578125 C 1.859375 -22.378906 2.578125 -25.71875 4.015625 -28.59375 C 5.453125 -31.46875 7.40625 -33.675781 9.875 -35.21875 C 12.351562 -36.769531 15.117188 -37.546875 18.171875 -37.546875 C 20.785156 -37.546875 23.070312 -37.015625 25.03125 -35.953125 C 27 -34.890625 28.515625 -33.492188 29.578125 -31.765625 L 29.578125 -37.015625 L 40.921875 -37.015625 L 40.921875 0 L 29.578125 0 L 29.578125 -5.234375 C 28.472656 -3.515625 26.9375 -2.125 24.96875 -1.0625 C 23 0 20.710938 0.53125 18.109375 0.53125 C 15.097656 0.53125 12.351562 -0.25 9.875 -1.8125 C 7.40625 -3.382812 5.453125 -5.617188 4.015625 -8.515625 C 2.578125 -11.421875 1.859375 -14.773438 1.859375 -18.578125 Z M 29.578125 -18.5 C 29.578125 -21.332031 28.789062 -23.566406 27.21875 -25.203125 C 25.65625 -26.835938 23.742188 -27.65625 21.484375 -27.65625 C 19.234375 -27.65625 17.320312 -26.847656 15.75 -25.234375 C 14.175781 -23.617188 13.390625 -21.398438 13.390625 -18.578125 C 13.390625 -15.742188 14.175781 -13.5 15.75 -11.84375 C 17.320312 -10.1875 19.234375 -9.359375 21.484375 -9.359375 C 23.742188 -9.359375 25.65625 -10.175781 27.21875 -11.8125 C 28.789062 -13.445312 29.578125 -15.675781 29.578125 -18.5 Z M 29.578125 -18.5 "/></g></g></g><g fill="#0466c8" fill-opacity="1"><g transform="translate(110.626559, 70.548544)"><g><path d="M 1.859375 -18.578125 C 1.859375 -22.378906 2.578125 -25.71875 4.015625 -28.59375 C 5.453125 -31.46875 7.40625 -33.675781 9.875 -35.21875 C 12.351562 -36.769531 15.117188 -37.546875 18.171875 -37.546875 C 20.609375 -37.546875 22.832031 -37.035156 24.84375 -36.015625 C 26.851562 -34.992188 28.429688 -33.625 29.578125 -31.90625 L 29.578125 -49.078125 L 40.921875 -49.078125 L 40.921875 0 L 29.578125 0 L 29.578125 -5.3125 C 28.515625 -3.539062 27 -2.125 25.03125 -1.0625 C 23.070312 0 20.785156 0.53125 18.171875 0.53125 C 15.117188 0.53125 12.351562 -0.25 9.875 -1.8125 C 7.40625 -3.382812 5.453125 -5.617188 4.015625 -8.515625 C 2.578125 -11.421875 1.859375 -14.773438 1.859375 -18.578125 Z M 29.578125 -18.5 C 29.578125 -21.332031 28.789062 -23.566406 27.21875 -25.203125 C 25.65625 -26.835938 23.742188 -27.65625 21.484375 -27.65625 C 19.234375 -27.65625 17.320312 -26.847656 15.75 -25.234375 C 14.175781 -23.617188 13.390625 -21.398438 13.390625 -18.578125 C 13.390625 -15.742188 14.175781 -13.5 15.75 -11.84375 C 17.320312 -10.1875 19.234375 -9.359375 21.484375 -9.359375 C 23.742188 -9.359375 25.65625 -10.175781 27.21875 -11.8125 C 28.789062 -13.445312 29.578125 -15.675781 29.578125 -18.5 Z M 29.578125 -18.5 "/></g></g></g><g fill="#0466c8" fill-opacity="1"><g transform="translate(150.813506, 70.548544)"><g><path d="M 39 -19.109375 C 39 -18.046875 38.929688 -16.9375 38.796875 -15.78125 L 13.140625 -15.78125 C 13.304688 -13.488281 14.039062 -11.734375 15.34375 -10.515625 C 16.65625 -9.296875 18.257812 -8.6875 20.15625 -8.6875 C 22.988281 -8.6875 24.957031 -9.878906 26.0625 -12.265625 L 38.140625 -12.265625 C 37.515625 -9.835938 36.394531 -7.648438 34.78125 -5.703125 C 33.175781 -3.753906 31.15625 -2.226562 28.71875 -1.125 C 26.289062 -0.0195312 23.570312 0.53125 20.5625 0.53125 C 16.9375 0.53125 13.707031 -0.238281 10.875 -1.78125 C 8.039062 -3.332031 5.828125 -5.546875 4.234375 -8.421875 C 2.648438 -11.296875 1.859375 -14.65625 1.859375 -18.5 C 1.859375 -22.351562 2.640625 -25.71875 4.203125 -28.59375 C 5.773438 -31.46875 7.976562 -33.675781 10.8125 -35.21875 C 13.644531 -36.769531 16.894531 -37.546875 20.5625 -37.546875 C 24.144531 -37.546875 27.328125 -36.789062 30.109375 -35.28125 C 32.898438 -33.78125 35.078125 -31.632812 36.640625 -28.84375 C 38.210938 -26.0625 39 -22.816406 39 -19.109375 Z M 27.390625 -22.09375 C 27.390625 -24.03125 26.722656 -25.570312 25.390625 -26.71875 C 24.066406 -27.875 22.410156 -28.453125 20.421875 -28.453125 C 18.523438 -28.453125 16.921875 -27.898438 15.609375 -26.796875 C 14.304688 -25.691406 13.503906 -24.125 13.203125 -22.09375 Z M 27.390625 -22.09375 "/></g></g></g><g fill="#0466c8" fill-opacity="1"><g transform="translate(186.822501, 70.548544)"><g><path d="M 15.25 -46.5625 L 15.25 -18.703125 C 15.25 -15.921875 15.9375 -13.773438 17.3125 -12.265625 C 18.6875 -10.765625 20.695312 -10.015625 23.34375 -10.015625 C 26 -10.015625 28.035156 -10.765625 29.453125 -12.265625 C 30.867188 -13.773438 31.578125 -15.921875 31.578125 -18.703125 L 31.578125 -46.5625 L 42.921875 -46.5625 L 42.921875 -18.765625 C 42.921875 -14.609375 42.035156 -11.09375 40.265625 -8.21875 C 38.492188 -5.34375 36.113281 -3.175781 33.125 -1.71875 C 30.144531 -0.257812 26.820312 0.46875 23.15625 0.46875 C 19.476562 0.46875 16.191406 -0.25 13.296875 -1.6875 C 10.398438 -3.125 8.109375 -5.289062 6.421875 -8.1875 C 4.742188 -11.082031 3.90625 -14.609375 3.90625 -18.765625 L 3.90625 -46.5625 Z M 15.25 -46.5625 "/></g></g></g><g fill="#0466c8" fill-opacity="1"><g transform="translate(228.733673, 70.548544)"><g><path d="M 15.453125 -31.765625 C 16.554688 -33.492188 18.082031 -34.890625 20.03125 -35.953125 C 21.976562 -37.015625 24.253906 -37.546875 26.859375 -37.546875 C 29.910156 -37.546875 32.675781 -36.769531 35.15625 -35.21875 C 37.632812 -33.675781 39.585938 -31.46875 41.015625 -28.59375 C 42.453125 -25.71875 43.171875 -22.378906 43.171875 -18.578125 C 43.171875 -14.773438 42.453125 -11.421875 41.015625 -8.515625 C 39.585938 -5.617188 37.632812 -3.382812 35.15625 -1.8125 C 32.675781 -0.25 29.910156 0.53125 26.859375 0.53125 C 24.296875 0.53125 22.03125 0 20.0625 -1.0625 C 18.09375 -2.125 16.554688 -3.492188 15.453125 -5.171875 L 15.453125 17.640625 L 4.109375 17.640625 L 4.109375 -37.015625 L 15.453125 -37.015625 Z M 31.640625 -18.578125 C 31.640625 -21.398438 30.851562 -23.617188 29.28125 -25.234375 C 27.707031 -26.847656 25.773438 -27.65625 23.484375 -27.65625 C 21.222656 -27.65625 19.304688 -26.835938 17.734375 -25.203125 C 16.171875 -23.566406 15.390625 -21.332031 15.390625 -18.5 C 15.390625 -15.675781 16.171875 -13.445312 17.734375 -11.8125 C 19.304688 -10.175781 21.222656 -9.359375 23.484375 -9.359375 C 25.734375 -9.359375 27.65625 -10.1875 29.25 -11.84375 C 30.84375 -13.5 31.640625 -15.742188 31.640625 -18.578125 Z M 31.640625 -18.578125 "/></g></g></g></g></g></svg>